<?xml version="1.0" encoding="UTF-8"?>
<!DOCTYPE svg PUBLIC "-//W3C//DTD SVG 1.1//EN" "http://www.w3.org/Graphics/SVG/1.1/DTD/svg11.dtd">
<!-- Creator: CorelDRAW X5 -->
<svg xmlns="http://www.w3.org/2000/svg" xml:space="preserve" width="260px" height="260px" style="shape-rendering:geometricPrecision; text-rendering:geometricPrecision; image-rendering:optimizeQuality; fill-rule:evenodd; clip-rule:evenodd"
viewBox="0 0 260 260"
 xmlns:xlink="http://www.w3.org/1999/xlink">
 <defs>
  <style type="text/css">
   <![CDATA[
    .fil0 {fill:#FEFEFE}
   ]]>
  </style>
 </defs>
 <g id="Warstwa_x0020_1">
  <metadata id="CorelCorpID_0Corel-Layer"/>
  <path id="Beznazwy-1.svg" class="fil0" d="M199 11l-138 0c-28,0 -50,22 -50,50l0 138c0,28 22,50 50,50l138 0c28,0 50,-22 50,-50l0 -138c0,-28 -22,-50 -50,-50zm-106 184l-28 0 0 -106 28 0 0 106zm-16 -119c-9,0 -16,-6 -16,-19 0,-9 6,-19 16,-19 9,0 16,6 16,19 0,9 -6,19 -16,19zm131 119l-28 0 0 -56c0,-34 -38,-31 -38,0l0 56 -28 0 0 -106 28 0 0 19c13,-25 69,-28 69,25l0 66 -3 -3z"/>
 </g>
</svg>
